<svg width="65" height="20" viewBox="0 0 65 20" fill="none" xmlns="http://www.w3.org/2000/svg">
<path d="M4.45898 15.9404H12.5459V19H0.650391V0.515625H4.45898V15.9404ZM29.1133 10.1768C29.1133 11.9964 28.7917 13.5918 28.1484 14.9629C27.5052 16.334 26.5827 17.3919 25.3809 18.1367C24.1875 18.8815 22.8164 19.2539 21.2676 19.2539C19.7357 19.2539 18.3688 18.8857 17.167 18.1494C15.9652 17.4131 15.0342 16.3636 14.374 15.001C13.7139 13.6299 13.3796 12.0557 13.3711 10.2783V9.36426C13.3711 7.5446 13.6969 5.94499 14.3486 4.56543C15.0088 3.17741 15.9355 2.11523 17.1289 1.37891C18.3307 0.634115 19.7018 0.261719 21.2422 0.261719C22.7826 0.261719 24.1494 0.634115 25.3428 1.37891C26.5446 2.11523 27.4714 3.17741 28.123 4.56543C28.7832 5.94499 29.1133 7.54036 29.1133 9.35156V10.1768ZM25.2539 9.33887C25.2539 7.40072 24.9069 5.92806 24.2129 4.9209C23.5189 3.91374 22.5286 3.41016 21.2422 3.41016C19.9642 3.41016 18.9782 3.90951 18.2842 4.9082C17.5902 5.89844 17.2389 7.35417 17.2305 9.27539V10.1768C17.2305 12.0641 17.5775 13.5283 18.2715 14.5693C18.9655 15.6104 19.9642 16.1309 21.2676 16.1309C22.5456 16.1309 23.5273 15.6315 24.2129 14.6328C24.8984 13.6257 25.2454 12.1615 25.2539 10.2402V9.33887ZM46.5059 16.6641C45.8203 17.485 44.8512 18.124 43.5986 18.5811C42.346 19.0296 40.958 19.2539 39.4346 19.2539C37.835 19.2539 36.43 18.9069 35.2197 18.2129C34.0179 17.5104 33.0869 16.4948 32.4268 15.166C31.7751 13.8372 31.4408 12.2757 31.4238 10.4814V9.22461C31.4238 7.37956 31.7327 5.78418 32.3506 4.43848C32.9769 3.08431 33.874 2.05176 35.042 1.34082C36.2184 0.621419 37.5938 0.261719 39.168 0.261719C41.36 0.261719 43.0739 0.786458 44.3096 1.83594C45.5452 2.87695 46.2773 4.39616 46.5059 6.39355H42.7988C42.6296 5.33561 42.2529 4.5612 41.6689 4.07031C41.0934 3.57943 40.2979 3.33398 39.2822 3.33398C37.9873 3.33398 37.0013 3.82064 36.3242 4.79395C35.6471 5.76725 35.3044 7.21452 35.2959 9.13574V10.3164C35.2959 12.2546 35.6641 13.7188 36.4004 14.709C37.1367 15.6992 38.2158 16.1943 39.6377 16.1943C41.068 16.1943 42.0879 15.8896 42.6973 15.2803V12.0938H39.2314V9.28809H46.5059V16.6641ZM64.7871 10.1768C64.7871 11.9964 64.4655 13.5918 63.8223 14.9629C63.179 16.334 62.2565 17.3919 61.0547 18.1367C59.8613 18.8815 58.4902 19.2539 56.9414 19.2539C55.4095 19.2539 54.0426 18.8857 52.8408 18.1494C51.639 17.4131 50.708 16.3636 50.0479 15.001C49.3877 13.6299 49.0534 12.0557 49.0449 10.2783V9.36426C49.0449 7.5446 49.3708 5.94499 50.0225 4.56543C50.6826 3.17741 51.6094 2.11523 52.8027 1.37891C54.0046 0.634115 55.3757 0.261719 56.916 0.261719C58.4564 0.261719 59.8232 0.634115 61.0166 1.37891C62.2184 2.11523 63.1452 3.17741 63.7969 4.56543C64.457 5.94499 64.7871 7.54036 64.7871 9.35156V10.1768ZM60.9277 9.33887C60.9277 7.40072 60.5807 5.92806 59.8867 4.9209C59.1927 3.91374 58.2025 3.41016 56.916 3.41016C55.638 3.41016 54.652 3.90951 53.958 4.9082C53.264 5.89844 52.9128 7.35417 52.9043 9.27539V10.1768C52.9043 12.0641 53.2513 13.5283 53.9453 14.5693C54.6393 15.6104 55.638 16.1309 56.9414 16.1309C58.2194 16.1309 59.2012 15.6315 59.8867 14.6328C60.5723 13.6257 60.9193 12.1615 60.9277 10.2402V9.33887Z" fill="black"/>
</svg>
